<?xml version="1.0" encoding="UTF-8" standalone="no"?>
<svg
   xmlns:dc="http://purl.org/dc/elements/1.1/"
   xmlns:cc="http://creativecommons.org/ns#"
   xmlns:rdf="http://www.w3.org/1999/02/22-rdf-syntax-ns#"
   xmlns:svg="http://www.w3.org/2000/svg"
   xmlns="http://www.w3.org/2000/svg"
   xmlns:sodipodi="http://sodipodi.sourceforge.net/DTD/sodipodi-0.dtd"
   xmlns:inkscape="http://www.inkscape.org/namespaces/inkscape"
   version="1.1"
   id="svg1627"
   width="324"
   height="321"
   viewBox="0 0 324 321"
   sodipodi:docname="icon3.svg"
   inkscape:version="1.0.2 (e86c870879, 2021-01-15, custom)">
  <metadata
     id="metadata1633">
    <rdf:RDF>
      <cc:Work
         rdf:about="">
        <dc:format>image/svg+xml</dc:format>
        <dc:type
           rdf:resource="http://purl.org/dc/dcmitype/StillImage" />
        <dc:title></dc:title>
      </cc:Work>
    </rdf:RDF>
  </metadata>
  <defs
     id="defs1631" />
  <sodipodi:namedview
     pagecolor="#ffffff"
     bordercolor="#666666"
     borderopacity="1"
     objecttolerance="10"
     gridtolerance="10"
     guidetolerance="10"
     inkscape:pageopacity="0"
     inkscape:pageshadow="2"
     inkscape:window-width="1920"
     inkscape:window-height="1001"
     id="namedview1629"
     showgrid="false"
     inkscape:zoom="1.8283446"
     inkscape:cx="86.650665"
     inkscape:cy="189.81584"
     inkscape:window-x="-9"
     inkscape:window-y="-9"
     inkscape:window-maximized="1"
     inkscape:current-layer="g1635" />
  <g
     inkscape:groupmode="layer"
     inkscape:label="Image"
     id="g1635">
    <path
       style="fill:#5a2698;fill-opacity:1"
       d="m 42.507767,317.41013 c -4.439308,-1.93247 -7.396258,-6.53992 -7.396258,-11.52466 0,-3.97501 2.261518,-10.01129 3.77568,-10.07777 0.398376,-0.0175 1.62432,-0.71081 2.72432,-1.5407 1.572009,-1.18599 2.106998,-3.05164 2.5,-8.71819 l 0.5,-7.20931 22.499997,-0.5 22.5,-0.5 v -12 -12 l -28.2519,-0.26558 -28.251897,-0.26557 -4.326683,4.51557 c -3.854747,4.02304 -4.808952,4.51517 -8.7481,4.51184 -11.7299018,-0.01 -17.7302328,-12.12786 -10.3488998,-20.90007 2.9682408,-3.52756 8.1325528,-5.44959 12.0767968,-4.49469 3.854005,0.93306 8.093595,4.01312 8.86369,6.43947 0.613701,1.9336 1.444098,1.98163 29.809143,1.72402 l 29.17785,-0.26499 0.29309,-6.07174 0.29309,-6.07173 -9.85867,-4.6036 c -5.42228,-2.53198 -10.38417,-5.23678 -11.02644,-6.01067 -0.81108,-0.97728 -1.24922,-9.62898 -1.43442,-28.32466 l -0.26665,-26.91761 -17.999997,-0.26098 -18,-0.26098 -1.727341,3.05254 c -1.753855,3.09939 -6.965316,5.96942 -10.839411,5.96942 -3.879642,0 -8.575194,-3.0182 -10.7694638,-6.92238 -2.600214,-4.62645 -2.705216,-7.13438 -0.493819,-11.79455 4.2813848,-9.02235 16.3292998,-9.71032 22.3354768,-1.27543 l 2.163119,3.03782 17.665719,-0.27273 17.665717,-0.27273 0.5,-27.91562 0.5,-27.91563 10.5,-5.084369 10.5,-5.084377 v -6.5 -6.5 l -28.24645,-0.265567 c -27.916965,-0.26247 -28.266919,-0.240303 -30.000005,1.900285 -3.713156,4.58623 -5.240902,5.767784 -8.688609,6.719742 C 12.857823,89.405005 3.9204672,80.008445 7.1140102,70.331917 8.8252392,65.14684 13.698505,61.839494 19.627317,61.839494 c 4.417941,0 5.193708,0.38269 9.153709,4.515577 l 4.326683,4.515576 28.251897,-0.265576 28.2519,-0.265577 v -12 -12 l -21.4221,-0.270389 c -13.74506,-0.173489 -21.897982,-0.665332 -22.750001,-1.372444 -0.834174,-0.692304 -1.327896,-3.335445 -1.327896,-7.108902 0,-5.831729 -0.131188,-6.129014 -4.5,-10.197443 -4.236059,-3.944803 -4.5,-4.500293 -4.5,-9.470709 0,-4.646915 0.398275,-5.678388 3.321131,-8.6012435 5.915523,-5.915523 13.862741,-5.614358 19.199116,0.7275635 1.92197,2.284136 2.47975,4.080887 2.47975,7.987939 0,4.547742 -0.39134,5.432263 -4,9.040922 -3.08985,3.089855 -3.999997,4.769608 -3.999997,7.382353 v 3.382353 h 20.565737 c 12.26414,0 21.34653,0.417864 22.5,1.035184 1.82798,0.978304 1.93426,2.32448 1.93426,24.5 0,15.763781 0.34559,23.464816 1.05299,23.464816 0.57915,0 9.691654,-4.091584 20.250004,-9.092409 10.55836,-5.000825 24.03451,-11.367808 29.94701,-14.148851 l 10.75,-5.056441 V 44.758738 30.975682 l -3.01509,-2.146932 c -1.6583,-1.180813 -3.6833,-3.439108 -4.5,-5.018434 -6.64657,-12.853046 10.2014,-25.1306625 20.43817,-14.8938985 5.66379,5.6637875 4.83159,15.3220895 -1.67356,19.4230765 l -3.17248,2 -0.0385,14.116113 -0.0385,14.116113 7.0088,3.133887 c 3.8548,1.723638 7.2178,3.133887 7.47329,3.133887 0.25549,0 10.44094,4.966029 22.63434,11.03562 12.19339,6.069591 22.61985,10.885608 23.16989,10.702259 0.63504,-0.211678 0.92452,-8.414327 0.79308,-22.471834 -0.19803,-21.178072 -0.11748,-22.228004 1.85677,-24.202259 1.95402,-1.954014 3.18077,-2.063786 23.06379,-2.063786 h 21 v -3.431906 c 0,-2.67567 -0.66439,-3.904992 -3.01509,-5.578838 -1.6583,-1.180813 -3.6833,-3.439108 -4.5,-5.018434 -6.64657,-12.853046 10.2014,-25.1306625 20.43817,-14.8938985 5.66379,5.6637875 4.83159,15.3220895 -1.67356,19.4230765 -3.03475,1.913174 -3.17415,2.287723 -3.211,8.627555 -0.0247,4.247971 -0.51529,7.023242 -1.36642,7.729612 -0.85201,0.707112 -9.00493,1.198955 -22.75,1.372444 l -21.4221,0.270389 v 12 12 l 27,0.280793 c 14.85,0.154436 27.98251,0.04089 29.18335,-0.252324 1.20084,-0.293214 2.47852,-1.46312 2.83929,-2.59979 0.96214,-3.03145 6.36486,-5.920645 11.07948,-5.924941 15.15422,-0.01381 17.70469,21.035515 3.03944,25.084788 -4.90661,1.35478 -11.8167,-1.592741 -14.10414,-6.01617 l -1.60458,-3.102916 -28.71642,0.26528 -28.71642,0.26528 -0.29047,6.520866 -0.29046,6.520865 9.29046,4.32339 c 5.10976,2.377864 10.07797,5.025715 11.04047,5.884115 1.58595,1.41443 1.75,4.12411 1.75,28.90575 v 27.34501 h 17.94346 17.94347 l 1.70438,-2.88529 c 3.29326,-5.57505 11.87674,-7.72344 17.52564,-4.38655 3.87704,2.29022 7.26027,9.27789 6.39641,13.21102 -1.30549,5.94385 -7.42527,11.06481 -13.2137,11.05708 -3.47858,-0.005 -8.65016,-3.07537 -10.86034,-6.44852 l -1.66934,-2.54774 H 275.9965 258.11151 v 27.34502 c 0,25.22141 -0.14202,27.47354 -1.82874,29 -1.00581,0.91025 -2.10545,1.65499 -2.44366,1.65499 -0.3382,0 -4.46527,1.86479 -9.17126,4.14398 l -8.55634,4.14398 v 6.35602 6.35602 h 28.65361 28.65361 l 3.61001,-3.91034 c 4.59602,-4.97839 9.38271,-6.09757 14.72475,-3.44279 5.25196,2.61 7.87804,6.57245 7.76704,11.71953 -0.16614,7.70367 -5.44617,12.6336 -13.53078,12.6336 -3.69947,0 -4.75573,-0.558 -8.54776,-4.51558 l -4.32668,-4.51557 -28.2519,0.26557 -28.2519,0.26558 v 12 12 l 21.4221,0.27039 c 13.74507,0.17349 21.89799,0.66533 22.75,1.37244 0.82903,0.68804 1.3279,3.31647 1.3279,6.99644 0,5.68049 0.16329,6.05084 4.5,10.20614 3.94163,3.77674 4.5,4.83552 4.5,8.53283 0,8.08461 -4.92993,13.36464 -12.6336,13.53078 -5.11725,0.11036 -9.1063,-2.5102 -11.67216,-7.66788 -2.61799,-5.26247 -1.4542,-10.2439 3.50673,-15.01002 3.19592,-3.07041 3.86512,-4.35277 3.61098,-6.91956 l -0.31195,-3.15069 -20.68002,0.23954 c -26.94502,0.31211 -24.92936,2.03318 -24.8178,-21.19065 0.14296,-29.76276 0.31014,-27.70976 -2.25646,-27.70976 -2.12111,0 -18.66448,7.45326 -19.74572,8.89601 -0.55928,0.74627 -27.51711,14.11077 -34.5062,17.10665 l -4.4938,1.92627 v 13.92052 c 0,13.81464 0.0194,13.93323 2.54774,15.58987 3.34314,2.19052 6.44384,7.37238 6.44852,10.77675 0.0108,7.83511 -7.946,14.63439 -15.47322,13.22228 -6.93689,-1.30137 -11.81776,-9.14364 -10.05702,-16.15898 0.37737,-1.50358 2.4519,-4.41352 4.61006,-6.46652 l 3.92392,-3.73274 v -13.52663 -13.52664 l -3.25,-1.40608 c -1.7875,-0.77335 -9.55,-4.4297 -17.25,-8.12522 -30.85178,-14.80695 -38.859064,-18.49554 -40.150524,-18.49554 -1.0943,0 -1.34948,4.43714 -1.34948,23.46482 0,21.33083 -0.15915,23.54835 -1.75,24.38343 -0.9625,0.50523 -10.93611,0.99 -22.16359,1.07727 -11.22747,0.0873 -20.702803,0.3374 -21.056285,0.55586 -0.353482,0.21847 -0.457415,1.98426 -0.230962,3.92399 0.28038,2.40167 1.038148,3.72561 2.375287,4.15 3.11162,0.98759 5.81763,6.38766 5.82182,11.6179 0.005,5.76555 -3.36883,10.28051 -8.810543,11.7919 -4.600804,1.27783 -4.98754,1.26047 -8.789466,-0.39454 z m 9.163617,-9.02167 c 2.028532,-3.09592 1.081317,-6.35468 -2.210919,-7.60639 -3.688854,-1.4025 -7.348956,1.15706 -7.348956,5.13922 0,1.66004 3.959546,4.91821 5.976947,4.91821 1.087321,0 2.699638,-1.10297 3.582928,-2.45104 z m 114.865496,0.53351 c 2.35929,-2.60699 1.63898,-6.19991 -1.60703,-8.01588 -2.4483,-1.3697 -2.86165,-1.33737 -4.75,0.37156 -2.45851,2.22493 -2.68122,5.80611 -0.49691,7.99042 2.11351,2.11352 4.74843,1.98046 6.85394,-0.3461 z m 115.65195,-0.15979 c 1.14252,-1.14252 1.81752,-2.75433 1.5,-3.58179 -0.31753,-0.82745 -0.57732,-1.9288 -0.57732,-2.44743 0,-0.51863 -1.18574,-1.39378 -2.63498,-1.94478 -5.43507,-2.06641 -9.59726,3.92724 -5.71003,8.22258 2.17644,2.40494 4.85864,2.31511 7.42233,-0.24858 z M 158.61151,241.76852 v -13.40431 l -4.66914,-0.66789 c -20.53688,-2.93767 -38.78749,-15.10791 -49.59252,-33.07029 -10.826404,-17.9979 -12.437624,-41.8208 -4.19629,-62.04469 1.6231,-3.98302 2.95264,-7.70586 2.95452,-8.27298 0.002,-0.56713 -5.930994,-3.83209 -13.184174,-7.25547 -9.84889,-4.64852 -13.39071,-5.90649 -13.98983,-4.96887 -0.44123,0.69051 -0.69431,24.43047 -0.5624,52.75547 l 0.23983,51.50001 10.5,5.24479 c 24.446644,12.2112 70.577564,34.03041 71.500004,33.81839 0.6055,-0.13917 1,-5.51785 1,-13.63416 z m 19.5,9.34811 c 5.225,-2.62742 9.725,-5.05658 10,-5.39812 0.76477,-0.94983 21.31572,-10.49045 24.1048,-11.19047 1.35118,-0.33912 10.43036,-4.44544 20.17595,-9.12515 l 17.71925,-8.50856 v -53.11076 c 0,-29.21091 -0.38011,-52.96075 -0.84469,-52.77741 -7.65966,3.02267 -26.15531,12.53679 -26.15531,13.45422 0,0.6754 1.31219,4.52449 2.91599,8.55355 4.21143,10.57998 5.45036,18.29302 4.83972,30.13008 -0.9445,18.30884 -7.49664,32.73476 -20.79922,45.79387 -5.21716,5.12168 -10.10098,8.79781 -14.98327,11.27813 -6.52591,3.31533 -18.37467,7.02659 -24.97322,7.8221 l -2.5,0.30139 -0.27822,13.75 c -0.15302,7.5625 0.072,13.76221 0.5,13.77713 0.42802,0.0149 5.05322,-2.12257 10.27822,-4.75 z m 133.43239,-0.60628 c 1.97499,-5.5291 -5.75698,-9.15749 -8.99227,-4.21981 -1.93684,2.95599 -1.19437,5.90234 1.83188,7.26951 3.03675,1.37192 6.03752,0.0939 7.16039,-3.0497 z m -288.859449,2.56384 c 3.511849,-2.40471 1.465187,-9.23469 -2.767254,-9.23469 -2.504636,0 -5.805688,2.68416 -5.805688,4.72073 0,4.26059 5.055501,6.92249 8.572942,4.51396 z M 172.67785,219.79122 c 33.25939,-5.87584 55.88892,-37.86168 50.05231,-70.74672 -3.16626,-17.83951 -13.56883,-33.20912 -28.68784,-42.38573 -17.73125,-10.762135 -39.11983,-11.531857 -58.18439,-2.09391 -10.15219,5.02586 -21.94522,16.98151 -26.90364,27.27463 -8.76231,18.18956 -8.77222,37.09715 -0.0288,55.00001 7.44328,15.24073 24.55304,28.82176 40.18604,31.89802 3.025,0.59526 6.4,1.25952 7.5,1.47614 3.93291,0.77447 10.22835,0.60894 16.06634,-0.42244 z m -38.55243,-21.70327 c -5.5914,-2.80437 -5.98279,-4.53957 -5.99917,-26.59733 -0.0118,-15.85316 0.29633,-20.5044 1.53051,-23.10524 1.6321,-3.4394 4.32573,-5.27268 8.45475,-5.75429 2.38908,-0.27866 2.52368,-0.65533 3.03373,-8.48976 0.46361,-7.12106 0.94154,-8.76334 3.63769,-12.5 6.27349,-8.69459 17.81978,-12.03147 27.08275,-7.8269 8.36408,3.79654 12.37261,10.17727 13.18501,20.98772 l 0.56082,7.46265 3.37693,0.68701 c 1.85732,0.37785 4.55732,1.86647 6,3.30804 l 2.62307,2.62104 0.32209,20.33887 c 0.26239,16.56889 0.0374,21.02035 -1.21401,24.0153 -2.57279,6.15755 -4.8633,6.60467 -33.82596,6.60289 -22.07175,-0.001 -25.72479,-0.22358 -28.76821,-1.75 z m 54.78609,-7.44845 c 1.69158,-1.69158 1.69158,-37.90843 0,-39.60001 -1.70636,-1.70636 -49.89364,-1.70636 -51.6,0 -1.7458,1.7458 -1.69885,39.43205 0.05,40.13773 0.6875,0.27741 12.2975,0.53991 25.8,0.58333 17.85282,0.0574 24.87736,-0.24841 25.75,-1.12105 z m -28.05,-2.8801 c -1.14872,-0.66907 -1.75,-2.24398 -1.75,-4.58372 0,-2.93518 -0.75029,-4.23027 -4.25,-7.336 -4.06035,-3.60324 -4.25,-4.0255 -4.25,-9.46271 0,-5.29485 0.26011,-5.92953 3.73531,-9.11432 3.18582,-2.91958 4.45319,-3.42316 8.61515,-3.42316 5.46806,0 9.19088,2.24547 11.66952,7.03864 2.88031,5.56991 0.75929,12.76659 -4.8448,16.43853 -1.68615,1.10482 -2.58762,2.83333 -2.97191,5.69847 -0.70313,5.24223 -2.55903,6.72123 -5.95327,4.74427 z m 5.42126,-17.5749 c 3.28901,-2.97651 1.3751,-9.34501 -2.80843,-9.34501 -4.9433,0 -7.12471,5.39567 -3.70784,9.17126 2.05358,2.26919 4.13939,2.3248 6.51627,0.17375 z m 11.07574,-28.59501 c 0.87607,-2.3756 -0.21972,-11.79657 -1.70654,-14.67175 -2.0937,-4.04877 -7.42577,-7.07825 -12.45815,-7.07825 -8.41664,0 -13.84497,5.30024 -14.78819,14.43924 -0.90884,8.80572 -1.32567,8.56076 14.56751,8.56076 10.22699,0 14.0468,-0.33192 14.38537,-1.25 z M 23.659528,164.40655 c 1.790101,-2.73204 0.824108,-5.76235 -2.384265,-7.47942 -2.650995,-1.41877 -6.596023,0.87973 -6.968045,4.05981 -0.638447,5.45751 6.344148,8.01064 9.35231,3.41961 z m 286.979382,0.40266 c 4.30995,-4.76244 -2.81163,-10.73744 -7.61583,-6.38969 -2.31827,2.098 -2.38689,3.29635 -0.35487,6.19746 1.94264,2.77351 5.55582,2.86065 7.9707,0.19223 z m -199.15867,-50.7226 c 2.55857,-3.76122 11.48889,-11.02013 18.4046,-14.95995 20.6283,-11.751794 47.11926,-11.425988 67.94601,0.835652 3.15494,1.857448 8.8812,6.414678 12.72504,10.127178 3.84384,3.7125 7.39481,6.75 7.89105,6.75 1.99669,0 25.77666,-12.00962 25.30169,-12.77814 -0.28102,-0.4547 -9.42684,-5.072937 -20.32403,-10.262758 -10.8972,-5.189821 -20.03809,-9.669549 -20.31309,-9.954952 -0.48208,-0.500314 -10.75325,-5.366335 -29.38842,-13.922912 -4.88864,-2.244679 -9.71978,-4.081234 -10.73586,-4.081234 -1.01609,0 -10.23452,4.05 -20.48539,9 -10.25088,4.95 -18.77526,9 -18.94306,9 -1.02648,0 -41.447274,19.999876 -41.447274,20.507776 0,0.85898 24.138044,12.42634 26.000004,12.45964 0.825,0.0148 2.34093,-1.20938 3.36873,-2.7203 z M 23.111509,77.839494 c 1.1,-1.1 2,-2.675 2,-3.5 0,-1.831526 -3.520064,-5.5 -5.277494,-5.5 -2.343513,0 -5.722506,3.086978 -5.722506,5.227963 0,2.687104 2.755143,5.772037 5.154988,5.772037 1.014756,0 2.745012,-0.9 3.845012,-2 z M 309.889,78.28279 c 1.22238,-0.856187 2.22251,-2.431187 2.22251,-3.5 0,-2.301946 -3.36975,-5.943296 -5.5,-5.943296 -0.825,0 -2.4,0.9 -3.5,2 -1.1,1.1 -2,2.675 -2,3.5 0,1.831526 3.52006,5.5 5.27749,5.5 0.70263,0 2.27763,-0.700517 3.5,-1.556704 z m -144,-56 c 2.4485,-1.714995 3.01156,-6.254251 1.02251,-8.243296 -0.66,-0.66 -2.37,-1.2 -3.8,-1.2 -3.34555,0 -5,1.701868 -5,5.143296 0,2.375766 2.97176,5.856704 5,5.856704 0.30524,0 1.55512,-0.700517 2.77749,-1.556704 z m 115,0 c 2.4485,-1.714995 3.01156,-6.254251 1.02251,-8.243296 -1.54692,-1.546918 -6.05308,-1.546918 -7.6,0 -1.98905,1.989045 -1.42599,6.528301 1.02251,8.243296 1.22237,0.856187 2.47225,1.556704 2.77749,1.556704 0.30524,0 1.55512,-0.700517 2.77749,-1.556704 z M 52.525686,19.619776 c 1.99498,-5.7077 -5.70351,-9.320723 -9.032975,-4.239318 -1.349272,2.05925 -1.447312,3.018524 -0.517148,5.060013 0.974015,2.137729 1.71176,2.472121 4.873636,2.209036 3.022285,-0.25147 3.905393,-0.823605 4.676487,-3.029731 z"
       id="path1639" />
  </g>
</svg>
