<?xml version="1.0" encoding="UTF-8" standalone="no"?>
<svg
   xmlns:dc="http://purl.org/dc/elements/1.1/"
   xmlns:cc="http://creativecommons.org/ns#"
   xmlns:rdf="http://www.w3.org/1999/02/22-rdf-syntax-ns#"
   xmlns:svg="http://www.w3.org/2000/svg"
   xmlns="http://www.w3.org/2000/svg"
   xmlns:sodipodi="http://sodipodi.sourceforge.net/DTD/sodipodi-0.dtd"
   xmlns:inkscape="http://www.inkscape.org/namespaces/inkscape"
   version="1.1"
   id="svg141"
   width="315"
   height="227"
   viewBox="0 0 315 227"
   sodipodi:docname="icon1.svg"
   inkscape:version="1.0.2 (e86c870879, 2021-01-15, custom)">
  <metadata
     id="metadata147">
    <rdf:RDF>
      <cc:Work
         rdf:about="">
        <dc:format>image/svg+xml</dc:format>
        <dc:type
           rdf:resource="http://purl.org/dc/dcmitype/StillImage" />
        <dc:title></dc:title>
      </cc:Work>
    </rdf:RDF>
  </metadata>
  <defs
     id="defs145" />
  <sodipodi:namedview
     pagecolor="#ffffff"
     bordercolor="#666666"
     borderopacity="1"
     objecttolerance="10"
     gridtolerance="10"
     guidetolerance="10"
     inkscape:pageopacity="0"
     inkscape:pageshadow="2"
     inkscape:window-width="1920"
     inkscape:window-height="1001"
     id="namedview143"
     showgrid="false"
     inkscape:zoom="2.5854565"
     inkscape:cx="141.59989"
     inkscape:cy="92.995431"
     inkscape:window-x="-9"
     inkscape:window-y="-9"
     inkscape:window-maximized="1"
     inkscape:current-layer="g149" />
  <g
     inkscape:groupmode="layer"
     inkscape:label="Image"
     id="g149">
    <path
       style="fill:#5a2698;fill-opacity:1"
       d="M 19.565512,226.7163 C 12.344432,224.93729 7.4749014,221.07118 3.7284314,214.14262 l -2.1629201,-4 v -95.5 -95.500001 l 2.4952701,-4.886185 c 1.3724,-2.687401 3.93961,-5.9878346 5.70491,-7.3342946 7.1838506,-5.47939 1.5607896,-5.27997 148.7087586,-5.27394 88.08363,0.004 137.36722,0.36005 139.7087,1.01045 5.20465,1.44571 9.86034,4.87661 13.34521,9.8344326 l 3.03716,4.320879 0.28193,95.664329 c 0.25645,87.01881 0.13238,96.05792 -1.37286,100.01946 -2.21187,5.82128 -6.51272,10.53467 -11.6718,12.79138 -4.05222,1.77255 -10.24206,1.86032 -141.73727,2.00987 -75.625008,0.086 -138.850008,-0.17621 -140.500008,-0.5827 z m 279.480078,-8.82523 c 1.91403,-0.96165 4.50153,-3.2775 5.75,-5.14633 l 2.26993,-3.39789 V 131.49146 53.636062 l -148.75,0.253279 -148.7500086,0.253278 -0.26159,76.500001 c -0.18121,52.99638 0.0698,77.30457 0.8169396,79.11871 1.34132,3.25679 6.772121,8.5297 9.444651,9.17006 1.1,0.26358 63.65,0.53073 139.000008,0.59367 128.56981,0.10741 137.21414,0.007 140.48007,-1.63399 z M 203.70807,178.5228 c -8.0575,-2.15629 -11.95504,-11.57533 -7.68655,-18.57585 4.04518,-6.63428 4.68274,-6.76995 33.49706,-7.1279 32.42489,-0.40281 35.88604,-0.0373 40.16458,4.24121 4.24528,4.24528 5.20768,9.2497 2.73549,14.22434 -3.65678,7.35834 -3.36323,7.2964 -36.35313,7.66938 -16.225,0.18343 -30.78585,-0.0106 -32.35745,-0.43118 z m 60.13494,-8.43688 c 2.63177,-1.84336 2.8721,-5.06803 0.56752,-7.61456 -1.52962,-1.69021 -3.81515,-1.82874 -30.17126,-1.82874 -25.13136,0 -28.73334,0.19645 -30.34501,1.65499 -2.27423,2.05815 -2.34495,5.11713 -0.17375,7.51627 1.52858,1.68907 3.80286,1.82874 29.77749,1.82874 23.8346,0 28.46138,-0.23735 30.34501,-1.5567 z m -185.231718,6.70094 c -0.35533,-1.11953 4.79523,-16.09602 12.98259,-37.75 21.681768,-57.344076 19.784188,-52.849407 22.476728,-53.239211 4.59949,-0.665876 5.1163,2.141862 1.96193,10.658741 -11.27231,30.43552 -30.331048,79.9072 -31.180298,80.93623 -1.57815,1.91222 -5.56458,1.52529 -6.24095,-0.60576 z m -30.80828,-27.90635 c -9.02962,-9.04469 -14.7375,-15.52733 -14.7375,-16.73789 0,-2.36778 28.70448,-31.5 31.0375,-31.5 2.00548,0 3.9625,1.95826 3.9625,3.96501 0,0.86075 -5.625,7.1765 -12.5,14.03499 -6.875,6.85849 -12.5,12.90547 -12.5,13.43773 0,0.53225 5.625,6.65268 12.5,13.60094 6.875,6.94826 12.5,13.12489 12.5,13.72584 0,1.45866 -2.84137,4.23549 -4.33393,4.23549 -0.65509,0 -7.82295,-6.64295 -15.92857,-14.76211 z m 83.012508,13.68201 c -0.9625,-0.5606 -1.75,-1.79117 -1.75,-2.7346 0,-0.94342 5.625,-7.32681 12.5,-14.1853 6.875,-6.85849 12.5,-12.79871 12.5,-13.20047 0,-0.40177 -5.625,-6.46675 -12.5,-13.47775 -6.875,-7.01099 -12.5,-13.49642 -12.5,-14.41207 0,-2.32072 2.54375,-4.1893 4.74983,-3.48911 2.95917,0.9392 30.25017,29.01495 30.25017,31.12001 0,1.92162 -28.72538,31.48618 -30.53689,31.42898 -0.52971,-0.0167 -1.75061,-0.48908 -2.71311,-1.04969 z m 73.45904,-20.90434 c -8.47143,-2.00711 -12.65494,-11.49191 -8.25304,-18.71123 4.26911,-7.00155 2.84889,-6.80433 49.00002,-6.80433 37.83079,0 41.83295,0.15793 44.77705,1.76693 4.58363,2.50502 6.60056,6.90915 6.00459,13.11151 -0.39827,4.14482 -1.05627,5.52418 -3.68021,7.71474 -1.75737,1.46712 -4.85173,2.94139 -6.87634,3.27615 -5.33953,0.88287 -77.0754,0.56946 -80.97207,-0.35377 z m 83.23426,-9.23807 c 2.05737,-2.93731 1.96362,-4.37057 -0.4433,-6.77749 -1.93211,-1.93211 -3.33333,-2 -41.27749,-2 -33.93074,0 -39.58004,0.21191 -41.5,1.5567 -2.63177,1.84336 -2.8721,5.06803 -0.56752,7.61456 1.55115,1.71401 4.18263,1.82874 41.94329,1.82874 h 40.28831 z m -84.4433,-27.89822 c -9.84867,-3.91565 -11.7538,-16.151589 -3.49553,-22.450476 l 3.34207,-2.549126 19.55985,0.310165 19.55984,0.310166 3.12601,3.128357 c 6.56715,6.572075 4.42371,17.347554 -4.13168,20.770744 -3.10434,1.24212 -7.5263,1.58669 -19.7308,1.53751 -8.65137,-0.0349 -16.85476,-0.51066 -18.22976,-1.05734 z m 36.42857,-8.4507 c 2.2554,-2.255398 1.94103,-6.056285 -0.65108,-7.871867 -1.77261,-1.241587 -5.27002,-1.556704 -17.27749,-1.556704 -16.4385,0 -19.5,0.861188 -19.5,5.485275 0,5.009008 1.78821,5.514725 19.5,5.514725 13.5368,0 16.62809,-0.27095 17.92857,-1.571429 z m 67.3571,-62.428571 c 0.33828,-14.802135 -0.81257,-18.522776 -6.76403,-21.867682 l -3.79395,-2.1323179 -138.36384,0.0037 c -136.987338,0.0037 -138.396768,0.0238 -141.671998,2.0206599 -5.323261,3.245505 -7.1441106,8.615131 -7.1699006,21.143815 -0.0121,5.867516 0.24499,11.363884 0.57127,12.21415 0.5319696,1.386296 15.8926906,1.523823 148.7500086,1.331787 l 148.15677,-0.21415 z M 29.483952,39.673766 c -1.14486,-0.463144 -3.28236,-2.269146 -4.75,-4.013339 -5.07174,-6.027414 -2.72545,-15.86475 4.61463,-19.347843 4.53484,-2.151922 6.19034,-2.103294 11.21571,0.329445 6.91172,3.345906 9.41653,11.34711 5.5417,17.702041 -3.29193,5.398945 -10.63263,7.752669 -16.62204,5.329696 z m 8.75282,-7.686135 c 4.16111,-3.765749 0.30072,-10.594832 -4.95154,-8.759349 -2.05295,0.717434 -2.79425,1.712042 -3.02372,4.05696 -0.52627,5.377754 4.16955,8.146511 7.97526,4.702389 z m 25.59131,7.0896 c -8.46884,-4.595143 -7.24936,-19.244139 1.92098,-23.075752 13.57968,-5.673951 24.62544,13.20178 12.9408,22.114093 -3.85087,2.937196 -10.43561,3.363274 -14.86178,0.961659 z m 10.01492,-6.991316 c 4.00964,-2.80846 1.68402,-9.443296 -3.31003,-9.443296 -4.50771,0 -6.51869,6.732735 -2.84246,9.516552 2.42293,1.83476 3.44581,1.822581 6.15249,-0.07326 z m 25.62378,6.659656 c -1.84373,-1.124284 -3.77552,-3.581024 -4.76978,-6.065938 -5.51691,-13.788101 12.889718,-24.3977136 21.879558,-12.611428 4.52587,5.933719 2.71512,15.854743 -3.47831,19.057487 -3.99373,2.065241 -9.89096,1.900794 -13.631468,-0.380121 z m 10.598738,-7.102952 c 1.1,-1.1 2,-2.574872 2,-3.277494 0,-2.343513 -3.08698,-5.722506 -5.22796,-5.722506 -2.68711,0 -5.77205,2.755143 -5.77205,5.154988 0,2.220951 3.41015,5.845012 5.50001,5.845012 0.825,0 2.4,-0.9 3.5,-2 z"
       id="path153" />
  </g>
</svg>
