<?xml version="1.0" encoding="UTF-8" standalone="no"?>
<svg
   xmlns:dc="http://purl.org/dc/elements/1.1/"
   xmlns:cc="http://creativecommons.org/ns#"
   xmlns:rdf="http://www.w3.org/1999/02/22-rdf-syntax-ns#"
   xmlns:svg="http://www.w3.org/2000/svg"
   xmlns="http://www.w3.org/2000/svg"
   xmlns:sodipodi="http://sodipodi.sourceforge.net/DTD/sodipodi-0.dtd"
   xmlns:inkscape="http://www.inkscape.org/namespaces/inkscape"
   version="1.1"
   id="svg998"
   width="328"
   height="321"
   viewBox="0 0 328 321"
   sodipodi:docname="icon2.svg"
   inkscape:version="1.0.2 (e86c870879, 2021-01-15, custom)">
  <metadata
     id="metadata1004">
    <rdf:RDF>
      <cc:Work
         rdf:about="">
        <dc:format>image/svg+xml</dc:format>
        <dc:type
           rdf:resource="http://purl.org/dc/dcmitype/StillImage" />
        <dc:title></dc:title>
      </cc:Work>
    </rdf:RDF>
  </metadata>
  <defs
     id="defs1002" />
  <sodipodi:namedview
     pagecolor="#ffffff"
     bordercolor="#666666"
     borderopacity="1"
     objecttolerance="10"
     gridtolerance="10"
     guidetolerance="10"
     inkscape:pageopacity="0"
     inkscape:pageshadow="2"
     inkscape:window-width="1920"
     inkscape:window-height="1001"
     id="namedview1000"
     showgrid="false"
     inkscape:zoom="1.8283446"
     inkscape:cx="-27.944464"
     inkscape:cy="157.29608"
     inkscape:window-x="-9"
     inkscape:window-y="-9"
     inkscape:window-maximized="1"
     inkscape:current-layer="g1006" />
  <g
     inkscape:groupmode="layer"
     inkscape:label="Image"
     id="g1006">
    <path
       style="fill:#5a2698;fill-opacity:1"
       d="m 79.720307,316.01418 c -7.34223,-3.7439 -9.80041,-12.60672 -5.2637,-18.97795 3.0337,-4.26043 6.10488,-5.11974 19.57697,-5.4776 l 11.884353,-0.3157 4.41111,-4.9886 c 5.75836,-6.51224 10.6334,-16.4097 10.73855,-21.80173 l 0.0816,-4.18687 -53.145833,-0.5 c -51.35225,-0.48313 -53.2203,-0.56742 -55.35238,-2.49764 -5.2074398,-4.71441 -5.0020698,-0.61755 -4.9980498,-99.7027 0.004,-89.629512 0.0599,-92.39184 1.94648,-95.485844 3.6283298,-5.950581 1.9157398,-5.770513 60.0497798,-6.313822 l 53.500003,-0.5 v -5 -5 l -21.4221,-0.270389 C 87.982017,44.821846 79.829097,44.330003 78.977077,43.622891 c -0.82903,-0.688033 -1.32789,-3.316471 -1.32789,-6.996437 0,-5.680486 -0.1633,-6.050844 -4.5,-10.206138 -4.18027,-4.005402 -4.5,-4.673742 -4.5,-9.40645 0,-3.992937 0.54771,-5.745614 2.53272,-8.1046647 4.84717,-5.7605274 12.64217,-6.3915274 18.46198,-1.494484 6.23691,5.2480147 5.75603,13.8406387 -1.10317,19.7118527 -3.24745,2.779698 -3.97782,4.017619 -3.71662,6.299354 l 0.32509,2.8398 21.702453,0.5 c 15.11833,0.348309 22.07073,0.869028 22.91638,1.716383 0.67978,0.681147 1.31302,4.421345 1.43911,8.5 0.12384,4.00599 0.27397,7.633472 0.33361,8.061074 0.0597,0.427601 6.52095,0.652601 14.35845,0.5 l 14.25,-0.277457 0.26554,-13 0.26555,-13 -3.05711,-1.727341 c -5.29237,-2.990328 -7.4293,-11.057707 -4.45337,-16.812508 1.61508,-3.1232357 7.97586,-6.9601511 11.53842,-6.9601511 3.64855,0 8.81659,3.0626874 10.92521,6.4744961 3.67958,5.953697 2.0151,13.253595 -3.99836,17.535561 l -3.04431,2.167735 0.27922,12.661104 0.27921,12.661104 h 14.5 14.5 l 0.2965,-7.996502 c 0.16308,-4.398076 0.74698,-8.448076 1.29755,-9 0.5755,-0.576903 10.22693,-1.216052 22.7035,-1.503498 l 21.70245,-0.5 0.30975,-3.201639 c 0.26269,-2.715138 -0.2238,-3.550883 -3.20154,-5.5 -4.25607,-2.785867 -5.60821,-5.502748 -5.60821,-11.268689 0,-7.7286657 7.51012,-13.5945621 15.48879,-12.0977531 3.96767,0.74434 9.01273,6.0220521 9.98406,10.4444641 0.85177,3.878079 -2.3943,11.483347 -5.62879,13.187797 -3.38392,1.783195 -3.81169,2.795807 -3.82875,9.063375 -0.009,3.441297 -0.53119,6.055695 -1.34321,6.729612 -0.85201,0.707112 -9.00493,1.198955 -22.75,1.372444 l -21.4221,0.270389 v 5 5 l 53.54497,0.5 c 48.91091,0.456727 53.77728,0.65227 56.22919,2.259418 6.05902,3.971492 5.78124,-1.148148 5.49099,101.201218 l -0.26515,93.50134 -3.26862,3.26901 -3.26863,3.26902 -53.23137,0.5 -53.23138,0.5 0.20867,4.4449 c 0.28503,6.07124 5.33805,15.9431 11.28676,22.05041 l 4.87472,5.00469 11.81493,0.004 c 10.08605,0.003 12.2993,0.29905 15.1251,2.02189 6.30145,3.8419 7.70503,12.50709 2.99564,18.4941 -4.43368,5.63651 -1.86858,5.4804 -90.0237,5.47872 -75.408113,-10e-4 -81.529923,-0.12791 -84.711043,-1.75 z m 168.100183,-7.90344 c 2.48636,-2.25013 2.30182,-5.90025 -0.39377,-7.78831 -1.96701,-1.37774 -11.50852,-1.5567 -83,-1.5567 -79.444163,0 -80.810503,0.033 -82.777493,2 -2.40693,2.40692 -2.50067,3.84018 -0.4433,6.77749 l 1.55671,2.22251 h 81.614553 c 74.53988,0 81.77308,-0.14346 83.4433,-1.65499 z m -36.69134,-17.31252 c 0.32887,-0.53212 -0.9651,-3.23978 -2.8755,-6.01701 -3.84551,-5.59039 -6.99593,-13.29424 -8.06583,-19.72375 -0.43903,-2.6383 -1.32299,-4.39356 -2.36944,-4.70494 -2.52503,-0.75134 -65.67022,-0.51767 -66.85209,0.24739 -0.56572,0.3662 -1.35303,2.42877 -1.74959,4.58349 -1.14586,6.22612 -4.43853,14.18975 -8.143,19.69457 -1.88169,2.79617 -3.17042,5.48981 -2.86384,5.98586 0.77377,1.25199 92.14483,1.18749 92.91929,-0.0656 z m 101.23446,-40.3182 c 1.68798,-1.68807 1.78562,-6.75803 1.78562,-92.71429 0,-85.945644 -0.0978,-91.026436 -1.78507,-92.714292 -1.65837,-1.658964 -5.34932,-1.806032 -52,-2.071964 -27.61821,-0.157437 -51.25149,-0.03033 -52.5184,0.282471 -2.05771,0.508045 -2.27108,1.072022 -2,5.28625 l 0.30347,4.717529 47.6674,0.5 c 26.21707,0.275 48.04207,0.874874 48.5,1.333054 1.28407,1.284767 1.59182,162.314082 0.31477,164.700272 -1.0387,1.94082 -2.84626,1.96668 -137.44593,1.96668 -122.574293,0 -136.552363,-0.15898 -137.962473,-1.56909 -1.40389,-1.40388 -1.54301,-10.14628 -1.32143,-83.03657 0.21628,-71.145408 0.43771,-81.587615 1.74766,-82.415603 0.88978,-0.562411 20.74316,-0.954347 48.80226,-0.96343 l 47.302263,-0.01531 -0.30226,-5.25 -0.30226,-5.25 H 71.052417 c -42.68661,0 -52.39542,0.247903 -53.75,1.372445 -1.51562,1.258237 -1.65319,9.013281 -1.65319,93.193298 v 91.82085 l 2.23661,1.56659 c 2.00962,1.40759 16.9761,1.54021 147.464393,1.3067 137.88857,-0.24675 145.318,-0.35012 147.01338,-2.04559 z M 295.64923,157.75543 V 81.745134 l -44.75,0.260295 -44.75,0.260295 -0.27869,12.590642 -0.27868,12.590644 10.76604,5.2344 c 5.92133,2.87892 11.10235,5.76313 11.51338,6.40936 1.09455,1.72088 0.95238,76.48052 -0.14937,78.53915 -0.51002,0.95299 -14.88377,8.38931 -31.94167,16.52516 l -31.01436,14.79246 -30.80832,-14.65057 c -16.94458,-8.05781 -31.37083,-15.38472 -32.05833,-16.28203 -1.66694,-2.17565 -1.81291,-75.32889 -0.15648,-78.42395 0.61601,-1.15104 5.65074,-4.17666 11.52992,-6.92892 l 10.43639,-4.88567 -0.27991,-12.75534 -0.27992,-12.755336 h -44.500003 -44.5 l -0.25861,74.500006 c -0.14223,40.975 -0.0439,75.0625 0.21862,75.75 0.37841,0.99118 27.50468,1.25 131.008613,1.25 h 130.53138 z m -135.23652,26.81388 -0.26348,-33.19642 -24.86731,-11.80358 c -13.67702,-6.49197 -25.27059,-11.80358 -25.76348,-11.80358 -0.51545,0 -0.78424,14.02843 -0.63269,33.02149 l 0.26348,33.02149 24.5,11.88721 c 13.475,6.53796 25.06857,11.9283 25.76348,11.97851 0.99933,0.0722 1.2084,-6.84888 1,-33.10512 z m 35.83889,20.80394 23.89763,-11.35141 0.26348,-33.12806 c 0.14491,-18.22043 -0.12555,-33.12805 -0.60104,-33.12805 -0.47549,0 -12.06905,5.33174 -25.76348,11.8483 l -24.89896,11.8483 -0.26357,33.2234 c -0.25415,32.03598 -0.19688,33.20222 1.60237,32.63116 1.02627,-0.32572 12.61988,-5.70036 25.76357,-11.94364 z m -7.04322,-71.9798 c 13.16747,-6.25476 23.94085,-11.93902 23.94085,-12.6317 0,-0.69267 -10.89744,-6.43045 -24.21654,-12.75062 L 164.71615,96.519897 140.43269,108.10234 c -13.3559,6.37033 -24.28346,12.11019 -24.28346,12.75524 0,1.0544 45.50425,23.60838 48.05915,23.8203 0.58253,0.0483 11.83253,-5.02968 25,-11.28443 z m 9.44085,-41.186743 V 81.765724 h -15.0575 -15.0575 l 0.3075,4.148155 c 0.17592,2.373173 0.94935,4.512098 1.8075,4.998694 6.18341,3.506152 26.49325,12.666347 27.16422,12.251667 0.45968,-0.2841 0.83578,-5.214993 0.83578,-10.957533 z m -51,4.23422 12.5,-6.1779 0.3075,-4.248652 0.3075,-4.248651 h -14.5575 c -9.00803,0 -14.57483,0.38121 -14.60295,1 -0.025,0.55 -0.0455,4.825 -0.0455,9.5 0,4.675003 0.0205,8.950006 0.0455,9.500006 0.0895,1.96963 3.7324,0.76072 16.04545,-5.324803 z m 12.80226,-27.925203 -0.30226,-5.25 -13.69989,-0.277893 c -12.29494,-0.249395 -13.79079,-0.09557 -14.5863,1.5 -0.74086,1.485955 -0.89635,5.342084 -0.34387,8.527893 0.0715,0.4125 6.67858,0.75 14.68232,0.75 h 14.55226 z m 37.69774,-0.25 v -5 h -14.5 -14.5 l -0.3032,5.277038 -0.30319,5.277038 14.80319,-0.277038 14.8032,-0.277038 z M 85.399227,19.973619 c 1.69926,-2.161673 1.57006,-4.196746 -0.40499,-6.379154 -2.05815,-2.274233 -5.11713,-2.344947 -7.51627,-0.173753 -2.39753,2.169734 -2.31672,4.857033 0.22241,7.396164 2.26563,2.265632 5.53662,1.907359 7.69885,-0.843257 z m 167.000003,-0.03876 c 4.24424,-5.267585 -3.65884,-11.2423087 -8.21353,-6.209429 -2.27062,2.509004 -1.32754,6.810557 1.74345,7.952185 2.61822,0.973315 4.74275,0.40106 6.47008,-1.742756 z m -83.95,0.630865 c 0.66,-0.66 1.2,-2.37 1.2,-3.8 0,-3.304758 -1.69524,-5 -5,-5 -3.30476,0 -5,1.695242 -5,5 0,3.304758 1.69524,5 5,5 1.43,0 3.14,-0.54 3.8,-1.2 z"
       id="path1010" />
  </g>
</svg>
